<?xml version="1.0" encoding="utf-8"?>
<!-- Generator: Adobe Illustrator 15.1.0, SVG Export Plug-In . SVG Version: 6.00 Build 0)  -->
<!DOCTYPE svg PUBLIC "-//W3C//DTD SVG 1.1//EN" "http://www.w3.org/Graphics/SVG/1.1/DTD/svg11.dtd">
<svg version="1.1" id="Calque_1" xmlns="http://www.w3.org/2000/svg" xmlns:xlink="http://www.w3.org/1999/xlink" x="0px" y="0px"
	 width="26px" height="26px" viewBox="0 0 26 26" enable-background="new 0 0 26 26" xml:space="preserve">
<path fill="#020202" d="M10.555,21.693c-0.684-0.182-1.338-0.453-1.966-0.816l-0.104-0.062l-2.781,1.693
	c-0.834-0.641-1.567-1.374-2.193-2.196l1.671-2.805L5.12,17.404c-0.335-0.614-0.599-1.263-0.794-1.946l-0.043-0.125l-3.155-0.795
	C1.042,13.967,1,13.45,1,12.988c0-0.348,0.042-0.856,0.127-1.526l3.155-0.795l0.043-0.125C4.506,9.899,4.771,9.25,5.12,8.596
	l0.062-0.104L3.51,5.687c0.642-0.808,1.372-1.542,2.193-2.196l2.781,1.694l0.104-0.062c0.614-0.348,1.269-0.622,1.966-0.816
	l0.105-0.021l0.792-3.18C12.108,1.035,12.624,1,13,1c0.475,0,0.99,0.035,1.548,0.106l0.795,3.18l0.127,0.021
	c0.667,0.194,1.315,0.468,1.942,0.816l0.104,0.062l2.803-1.694c0.834,0.655,1.562,1.388,2.173,2.196L20.82,8.492l0.063,0.104
	c0.318,0.587,0.59,1.234,0.815,1.946l0.019,0.125l3.178,0.795C24.966,12.089,25,12.6,25,12.988c0,0.476-0.034,0.991-0.105,1.55
	l-3.178,0.795l-0.019,0.125c-0.212,0.684-0.483,1.332-0.815,1.946l-0.063,0.104l1.671,2.805c-0.669,0.852-1.395,1.585-2.173,2.196
	l-2.803-1.693l-0.104,0.062c-0.654,0.363-1.304,0.635-1.942,0.816l-0.127,0.044l-0.795,3.157C13.892,24.966,13.376,25,13,25
	c-0.472,0-0.989-0.034-1.548-0.105l-0.792-3.157L10.555,21.693z M8.506,12.988c0,1.244,0.438,2.305,1.316,3.182
	c0.878,0.878,1.938,1.317,3.177,1.317c1.24,0,2.3-0.439,3.179-1.317c0.879-0.877,1.317-1.938,1.317-3.182
	c0-1.226-0.438-2.279-1.317-3.159C15.299,8.952,14.24,8.511,13,8.511c-1.239,0-2.299,0.44-3.177,1.318
	C8.944,10.709,8.506,11.762,8.506,12.988"/>
</svg>
