<?xml version="1.0" encoding="utf-8"?>
<!-- Generator: Adobe Illustrator 15.1.0, SVG Export Plug-In . SVG Version: 6.00 Build 0)  -->
<!DOCTYPE svg PUBLIC "-//W3C//DTD SVG 1.1//EN" "http://www.w3.org/Graphics/SVG/1.1/DTD/svg11.dtd">
<svg version="1.1" id="Calque_1" xmlns="http://www.w3.org/2000/svg" xmlns:xlink="http://www.w3.org/1999/xlink" x="0px" y="0px"
	 width="26px" height="26px" viewBox="0 0 26 26" enable-background="new 0 0 26 26" xml:space="preserve">
<g>
	<path d="M21.485,5.433C19.217,3.219,16.205,2,13,2c-3.207,0-6.22,1.219-8.487,3.433C2.249,7.646,1,10.59,1,13.721
		c0,2.091,0.57,4.143,1.651,5.935c1.047,1.739,2.547,3.193,4.333,4.206C7.148,23.955,7.327,24,7.505,24
		c0.359,0,0.708-0.181,0.901-0.506c0.288-0.485,0.12-1.108-0.378-1.39c-3.052-1.73-4.947-4.941-4.947-8.384
		c0-5.342,4.45-9.688,9.919-9.688s9.918,4.346,9.918,9.688c0,2.258-0.626,4.141-1.811,5.446c-0.965,1.063-2.257,1.672-3.552,1.672
		c-1.294,0-2.762-0.666-3.302-2.428c2.088-0.422,3.663-2.23,3.663-4.393v-2.961c0-0.141-0.118-0.254-0.262-0.254h-1.392V8.031
		c0-0.562-0.465-1.017-1.041-1.017c-0.574,0-1.041,0.455-1.041,1.017v2.772h-2.366V8.031c0-0.562-0.465-1.017-1.041-1.017
		c-0.574,0-1.04,0.455-1.04,1.017v2.772H8.343c-0.145,0-0.26,0.114-0.26,0.254v2.961c0,2.291,1.769,4.186,4.043,4.453
		c0.245,1.12,0.754,2.084,1.508,2.837c1.013,1.007,2.406,1.562,3.922,1.562c1.889,0,3.751-0.858,5.109-2.355
		C23.73,19.342,25,17.209,25,13.721C25,10.59,23.752,7.646,21.485,5.433L21.485,5.433z M21.485,5.433"/>
</g>
</svg>
