<?xml version="1.0" encoding="utf-8"?>
<!-- Generator: Adobe Illustrator 15.1.0, SVG Export Plug-In . SVG Version: 6.00 Build 0)  -->
<!DOCTYPE svg PUBLIC "-//W3C//DTD SVG 1.1//EN" "http://www.w3.org/Graphics/SVG/1.1/DTD/svg11.dtd">
<svg version="1.1" id="Calque_1" xmlns="http://www.w3.org/2000/svg" xmlns:xlink="http://www.w3.org/1999/xlink" x="0px" y="0px"
	 width="26px" height="26px" viewBox="0 0 26 26" enable-background="new 0 0 26 26" xml:space="preserve">
<g>
	<path d="M13,1C6.385,1,1,6.383,1,13c0,6.616,5.385,12,12,12C19.617,25,25,19.616,25,13C25,6.383,19.617,1,13,1L13,1z
		 M19.335,16.108c0.061,0.148,0.179,0.272,0.339,0.34l2.047,0.849c-1.59,3.212-4.901,5.427-8.721,5.427
		c-3.824,0-7.139-2.22-8.726-5.439l2.047-0.846c0.32-0.132,0.472-0.498,0.34-0.818c-0.132-0.318-0.498-0.471-0.818-0.34l-2.05,0.848
		C3.46,15.146,3.278,14.095,3.278,13c0-1.099,0.183-2.156,0.521-3.141l2.048,0.85c0.32,0.132,0.687-0.019,0.819-0.339
		c0.132-0.319-0.018-0.686-0.339-0.818L4.281,8.703c0.949-1.92,2.514-3.483,4.434-4.43l0.848,2.049
		c0.131,0.318,0.498,0.47,0.816,0.339c0.32-0.131,0.473-0.498,0.341-0.818L9.872,3.793C10.854,3.458,11.906,3.277,13,3.277
		c1.099,0,2.155,0.183,3.142,0.52l-0.852,2.049c-0.066,0.16-0.061,0.332,0,0.48c0.062,0.147,0.18,0.272,0.34,0.339
		c0.317,0.132,0.685-0.019,0.818-0.339l0.849-2.047c1.92,0.95,3.481,2.515,4.429,4.436l-2.048,0.846
		c-0.32,0.132-0.471,0.499-0.339,0.818c0.133,0.321,0.498,0.471,0.818,0.34l2.049-0.847c0.335,0.982,0.518,2.036,0.518,3.129
		c0,1.1-0.185,2.155-0.521,3.142l-2.049-0.851c-0.32-0.132-0.686,0.019-0.818,0.338C19.27,15.789,19.274,15.96,19.335,16.108
		L19.335,16.108z M19.335,16.108"/>
	<path d="M17.528,7.567c-0.057-0.046-0.141-0.044-0.195,0.005C17.1,7.775,16.86,7.996,16.62,8.226
		c-0.193,0.186-0.388,0.377-0.578,0.57c-0.054,0.056-0.108,0.111-0.164,0.168c-0.042-0.007-0.086-0.01-0.126-0.01
		c-0.243,0-0.472,0.107-0.628,0.292c-0.166,0.198-0.227,0.457-0.168,0.711c-0.063,0.069-0.121,0.136-0.183,0.206
		c-0.194,0.219-0.389,0.447-0.573,0.668l-0.171,0.206c-0.175,0.213-0.358,0.435-0.527,0.652l-0.029,0.037
		c-0.154-0.044-0.312-0.066-0.472-0.066c-0.941,0-1.708,0.765-1.708,1.708c0,0.356,0.109,0.698,0.316,0.99l-0.042,0.07
		c-0.106,0.172-0.196,0.325-0.27,0.455c-0.126,0.223-0.2,0.367-0.223,0.41c-0.048,0.1-0.033,0.218,0.038,0.304
		c0.053,0.064,0.133,0.102,0.218,0.102c0.066,0,0.128-0.021,0.18-0.065c0.023-0.019,0.15-0.126,0.345-0.309
		c0.11-0.102,0.238-0.226,0.382-0.368l0.042-0.042c0.227,0.106,0.469,0.161,0.721,0.161c0.94,0,1.708-0.768,1.708-1.708
		c0-0.326-0.092-0.642-0.267-0.915l0.008-0.01c0.173-0.218,0.347-0.443,0.516-0.667l0.162-0.216
		c0.171-0.232,0.349-0.472,0.512-0.708c0.065-0.089,0.126-0.178,0.187-0.266c0.218-0.021,0.413-0.123,0.553-0.289
		c0.141-0.167,0.207-0.38,0.188-0.598c-0.006-0.056-0.018-0.114-0.034-0.171c0.049-0.078,0.099-0.155,0.146-0.23
		c0.143-0.229,0.283-0.462,0.421-0.694c0.167-0.289,0.325-0.572,0.47-0.845C17.604,7.696,17.587,7.614,17.528,7.567L17.528,7.567z
		 M17.528,7.567"/>
	<path d="M17.216,11.49c-0.048,0-0.096,0.004-0.144,0.013c-0.215,0.038-0.403,0.156-0.529,0.336
		c-0.125,0.179-0.173,0.397-0.135,0.611c0.068,0.392,0.407,0.677,0.806,0.677c0.045,0,0.095-0.004,0.143-0.013
		c0.215-0.038,0.401-0.157,0.527-0.335c0.126-0.179,0.173-0.396,0.135-0.613C17.951,11.775,17.612,11.49,17.216,11.49L17.216,11.49z
		 M17.216,11.49"/>
	<path d="M9.593,12.45c0.038-0.214-0.01-0.432-0.136-0.611c-0.125-0.18-0.313-0.298-0.528-0.336
		c-0.047-0.009-0.095-0.013-0.143-0.013c-0.397,0-0.735,0.286-0.805,0.677c-0.038,0.216,0.01,0.432,0.135,0.612
		c0.125,0.178,0.313,0.297,0.528,0.335c0.048,0.009,0.095,0.013,0.144,0.013C9.186,13.127,9.523,12.842,9.593,12.45L9.593,12.45z
		 M9.593,12.45"/>
	<path d="M10.25,10.592c0.136,0,0.337-0.033,0.525-0.191c0.346-0.291,0.391-0.807,0.102-1.153c-0.156-0.186-0.385-0.292-0.627-0.292
		c-0.135,0-0.337,0.034-0.525,0.191c-0.167,0.14-0.271,0.338-0.29,0.555c-0.019,0.218,0.048,0.43,0.188,0.598
		C9.779,10.485,10.008,10.592,10.25,10.592L10.25,10.592z M10.25,10.592"/>
	<path d="M13,9.591c0.451,0,0.818-0.368,0.818-0.819S13.452,7.954,13,7.954c-0.451,0-0.818,0.368-0.818,0.819S12.55,9.591,13,9.591
		L13,9.591z M13,9.591"/>
	<path d="M15.783,17.201h-5.563c-0.771,0-1.395,0.625-1.395,1.395c0,0.771,0.624,1.395,1.395,1.395h5.563
		c0.769,0,1.394-0.623,1.394-1.395C17.176,17.826,16.551,17.201,15.783,17.201L15.783,17.201z M15.783,17.201"/>
</g>
</svg>
