<?xml version="1.0" encoding="utf-8"?>
<!-- Generator: Adobe Illustrator 15.1.0, SVG Export Plug-In . SVG Version: 6.00 Build 0)  -->
<!DOCTYPE svg PUBLIC "-//W3C//DTD SVG 1.1//EN" "http://www.w3.org/Graphics/SVG/1.1/DTD/svg11.dtd">
<svg version="1.1" id="Calque_1" xmlns="http://www.w3.org/2000/svg" xmlns:xlink="http://www.w3.org/1999/xlink" x="0px" y="0px"
	 width="158.552px" height="118.917px" viewBox="0 0 158.552 118.917" enable-background="new 0 0 158.552 118.917"
	 xml:space="preserve">
<g>
	<g>
		<path fill="#010101" d="M153.579,28.775L135.516,7.229c-7.152-8.573-20.948-9.707-29.386-2.407L85.88,22.367l7.687,9.406
			l20.358-17.64c1.595-1.381,3.635-2.143,5.72-2.143c2.6,0,5.039,1.14,6.719,3.151l18.068,21.552
			c1.521,1.821,2.266,4.136,2.063,6.521c-0.182,2.4-1.274,4.576-3.084,6.133L99.992,86.983c-3.578,3.101-9.4,2.608-12.444-1.025
			L69.503,64.417c-1.54-1.843-2.272-4.154-2.075-6.532c0.187-2.4,1.279-4.57,3.071-6.125l4.978-4.318l-7.694-9.395l-5.077,4.408
			c-4.245,3.669-6.808,8.81-7.26,14.444C55,62.557,56.741,68.03,60.355,72.34L78.4,93.883c3.963,4.746,9.751,7.467,15.883,7.467
			c4.942,0,9.738-1.805,13.504-5.066L151.2,58.646c4.256-3.658,6.83-8.792,7.286-14.446
			C158.922,38.548,157.187,33.069,153.579,28.775z"/>
	</g>
	<g>
		<path fill="#010101" d="M103.104,61.764c0.439-5.642-1.291-11.115-4.903-15.427L80.143,24.797
			c-7.158-8.568-20.955-9.706-29.391-2.401L7.326,60.016c-4.244,3.686-6.814,8.808-7.26,14.461
			c-0.438,5.643,1.296,11.127,4.904,15.432l18.052,21.535c3.968,4.758,9.75,7.474,15.882,7.474c4.943,0,9.738-1.804,13.503-5.065
			l20.526-17.793l-7.502-9.555l-20.825,18.047c-3.577,3.089-9.399,2.599-12.433-1.025L14.123,81.979
			c-1.533-1.809-2.266-4.137-2.069-6.526c0.186-2.395,1.274-4.577,3.067-6.119l43.424-37.627c1.597-1.38,3.625-2.154,5.721-2.154
			c2.599,0,5.044,1.151,6.725,3.168l18.063,21.552c1.527,1.815,2.266,4.132,2.063,6.521c-0.186,2.385-1.273,4.564-3.076,6.115
			l-4.611,4.002l7.508,9.547l4.885-4.237C100.076,72.55,102.652,67.422,103.104,61.764z"/>
	</g>
</g>
</svg>
