<?xml version="1.0" encoding="utf-8"?>
<!-- Generator: Adobe Illustrator 15.1.0, SVG Export Plug-In . SVG Version: 6.00 Build 0)  -->
<!DOCTYPE svg PUBLIC "-//W3C//DTD SVG 1.1//EN" "http://www.w3.org/Graphics/SVG/1.1/DTD/svg11.dtd">
<svg version="1.1" id="Calque_1" xmlns="http://www.w3.org/2000/svg" xmlns:xlink="http://www.w3.org/1999/xlink" x="0px" y="0px"
	 width="26px" height="26px" viewBox="0 0 26 26" enable-background="new 0 0 26 26" xml:space="preserve">
<g>
	<path d="M16.304,3h-6.61C9.462,3,9.273,3.186,9.273,3.415v19.17c0,0.229,0.189,0.414,0.421,0.414h6.61
		c0.234,0,0.422-0.186,0.422-0.414V3.415C16.726,3.186,16.539,3,16.304,3L16.304,3z M13,19.347c-0.812,0-1.471-0.65-1.471-1.451
		c0-0.803,0.659-1.453,1.471-1.453c0.813,0,1.473,0.65,1.473,1.453C14.472,18.696,13.813,19.347,13,19.347L13,19.347z
		 M15.706,11.934c0,0.229-0.188,0.415-0.423,0.415h-4.567c-0.233,0-0.421-0.186-0.421-0.415v-0.417c0-0.229,0.188-0.415,0.421-0.415
		h4.567c0.234,0,0.423,0.186,0.423,0.415V11.934z M15.706,9.854c0,0.23-0.188,0.417-0.423,0.417h-4.567
		c-0.233,0-0.421-0.187-0.421-0.417V9.437c0-0.229,0.188-0.415,0.421-0.415h4.567c0.234,0,0.423,0.186,0.423,0.415V9.854z
		 M15.706,7.773c0,0.231-0.188,0.418-0.423,0.418h-4.567c-0.233,0-0.421-0.187-0.421-0.418V7.357c0-0.229,0.188-0.414,0.421-0.414
		h4.567c0.234,0,0.423,0.185,0.423,0.414V7.773z M15.706,5.696c0,0.228-0.188,0.415-0.423,0.415h-4.567
		c-0.233,0-0.421-0.187-0.421-0.415V5.28c0-0.23,0.188-0.417,0.421-0.417h4.567c0.234,0,0.423,0.186,0.423,0.417V5.696z
		 M15.706,5.696"/>
	<path d="M25.999,5.214c0-0.197-0.166-0.371-0.373-0.39c-1.96-0.176-3.921-0.352-5.881-0.528c-0.021-0.001-0.083,0-0.146,0.02
		l-2.293,0.57v17.781l2.372,0.33c0.028,0.006,0.065,0,0.067,0c1.96-0.176,3.921-0.373,5.881-0.549
		C25.833,22.431,26,22.257,26,22.062C25.999,17.54,25.999,9.734,25.999,5.214L25.999,5.214z M20.28,6.431
		c0-0.21,0.166-0.368,0.372-0.355c1.356,0.096,2.71,0.19,4.064,0.284c0.208,0.015,0.374,0.187,0.374,0.385v0.359
		c0,0.198-0.166,0.35-0.374,0.338c-1.354-0.077-2.708-0.153-4.064-0.229c-0.206-0.012-0.372-0.192-0.372-0.401V6.431z M25.09,12.493
		c0,0.197-0.166,0.36-0.374,0.362c-1.354,0.014-2.708,0.029-4.064,0.043c-0.206,0.003-0.372-0.167-0.372-0.377v-0.38
		c0-0.211,0.166-0.38,0.372-0.378c1.356,0.001,2.71,0.006,4.064,0.009c0.208,0.001,0.374,0.162,0.374,0.36V12.493z M24.716,11.049
		c-1.354-0.014-2.708-0.029-4.064-0.046C20.446,11,20.28,10.829,20.28,10.618v-0.381c0-0.209,0.166-0.375,0.372-0.371
		c1.356,0.034,2.71,0.068,4.064,0.102c0.208,0.005,0.374,0.17,0.374,0.369c0,0.143,0,0.216,0,0.359
		C25.09,10.894,24.924,11.053,24.716,11.049L24.716,11.049z M25.09,8.901c0,0.197-0.166,0.353-0.374,0.345
		c-1.354-0.046-2.708-0.092-4.064-0.137c-0.206-0.008-0.372-0.183-0.372-0.394v-0.38c0-0.21,0.166-0.372,0.372-0.363
		c1.356,0.063,2.71,0.128,4.064,0.193c0.208,0.009,0.374,0.177,0.374,0.376V8.901z M25.09,8.901"/>
	<path d="M6.254,4.296c-1.959,0.176-3.92,0.352-5.879,0.528C0.167,4.843,0,5.017,0,5.214C0,9.734,0,17.54,0,22.062
		c0,0.195,0.167,0.369,0.375,0.387c1.959,0.176,3.92,0.373,5.879,0.549c0.003,0,0.041,0.006,0.069,0l2.372-0.33V4.886l-2.292-0.57
		C6.337,4.296,6.276,4.294,6.254,4.296L6.254,4.296z M5.721,12.521c0,0.21-0.168,0.38-0.375,0.377
		c-1.354-0.014-2.71-0.029-4.063-0.043c-0.207-0.002-0.375-0.165-0.375-0.362v-0.361c0-0.198,0.168-0.359,0.375-0.36
		c1.354-0.003,2.709-0.008,4.063-0.009c0.207-0.002,0.375,0.167,0.375,0.378V12.521z M5.721,10.618c0,0.211-0.168,0.382-0.375,0.385
		c-1.354,0.017-2.71,0.032-4.063,0.046c-0.207,0.004-0.375-0.155-0.375-0.354c0-0.143,0-0.216,0-0.359
		c0-0.199,0.168-0.364,0.375-0.369c1.354-0.034,2.709-0.068,4.063-0.102c0.207-0.004,0.375,0.162,0.375,0.371V10.618z M5.721,8.715
		c0,0.211-0.168,0.386-0.375,0.394C3.992,9.154,2.636,9.2,1.283,9.246C1.076,9.254,0.908,9.098,0.908,8.901v-0.36
		c0-0.199,0.168-0.367,0.375-0.376C2.636,8.1,3.992,8.035,5.346,7.972c0.207-0.009,0.375,0.153,0.375,0.363V8.715z M5.721,6.812
		c0,0.209-0.168,0.389-0.375,0.401c-1.354,0.076-2.71,0.152-4.063,0.229c-0.207,0.012-0.375-0.14-0.375-0.338V6.745
		c0-0.198,0.168-0.371,0.375-0.385c1.354-0.094,2.709-0.188,4.063-0.284c0.207-0.013,0.375,0.145,0.375,0.355V6.812z M5.721,6.812"
		/>
</g>
</svg>
