<?xml version="1.0" encoding="utf-8"?>
<!-- Generator: Adobe Illustrator 15.1.0, SVG Export Plug-In . SVG Version: 6.00 Build 0)  -->
<!DOCTYPE svg PUBLIC "-//W3C//DTD SVG 1.1//EN" "http://www.w3.org/Graphics/SVG/1.1/DTD/svg11.dtd">
<svg version="1.1" id="Calque_1" xmlns="http://www.w3.org/2000/svg" xmlns:xlink="http://www.w3.org/1999/xlink" x="0px" y="0px"
	 width="100px" height="100px" viewBox="0 0 100 100" enable-background="new 0 0 100 100" xml:space="preserve">
<g>
	<path d="M51.219,45.87c0.289,0.287,0.679,0.449,1.087,0.449h46.155c0.436,0,0.851-0.184,1.143-0.507
		c0.292-0.323,0.433-0.756,0.386-1.188c-1.318-12.334-7.096-23.652-16.268-31.869C74.542,4.53,62.616,0,50.141,0
		C38.739,0,27.575,3.922,18.705,11.046c-0.339,0.272-0.547,0.677-0.569,1.112c-0.024,0.434,0.14,0.858,0.447,1.166L51.219,45.87z
		 M44.998,28.389L58.236,8.755c1.519,0.296,3.027,0.676,4.504,1.137L48.254,31.634L44.998,28.389z M50.141,7.977
		c0.395,0,0.793,0.005,1.196,0.017L40.565,23.968l-3.489-3.481l8.625-12.281C47.174,8.054,48.666,7.977,50.141,7.977L50.141,7.977z
		 M36.857,10.104l-4.198,5.979l-2.89-2.882c1.871-1.032,3.831-1.925,5.839-2.661C36.021,10.389,36.437,10.244,36.857,10.104
		L36.857,10.104z M76.099,38.344l8.426-12.648c0.579,0.816,1.135,1.659,1.659,2.521l-6.969,10.127H76.099z M86.677,38.344
		l2.643-3.842c0.501,1.261,0.942,2.545,1.318,3.842H86.677z M63.707,38.344l13.624-20.448c0.438,0.369,0.862,0.74,1.267,1.109
		c0.61,0.557,1.219,1.15,1.82,1.769l-11.707,17.57H63.707z M56.319,38.344h-1.338l-2.29-2.285l15.893-23.852
		c1.292,0.627,2.554,1.322,3.768,2.074L56.319,38.344z M56.319,38.344"/>
	<path d="M44.61,49.691L13.363,18.53c-0.31-0.308-0.735-0.471-1.171-0.447c-0.435,0.023-0.842,0.23-1.115,0.57
		C3.934,27.498,0,38.629,0,50c0,15.573,7.082,29.979,19.43,39.525c0.271,0.209,0.604,0.321,0.942,0.321
		c0.09,0,0.183-0.008,0.275-0.025c0.429-0.078,0.805-0.334,1.035-0.705l23.151-37.537C45.206,50.975,45.114,50.194,44.61,49.691
		L44.61,49.691z M35.349,51.734L18.976,78.28c-2.552-2.795-4.705-5.895-6.409-9.228C9.535,63.121,7.997,56.712,7.997,50
		c0-4.986,0.866-9.861,2.572-14.491c0.738-2.004,1.634-3.958,2.669-5.823L35.349,51.734z M35.349,51.734"/>
	<path d="M98.462,53.682H53.064c-0.535,0-1.031,0.276-1.311,0.73L27.966,92.979c-0.229,0.371-0.289,0.821-0.165,1.238
		c0.124,0.417,0.42,0.763,0.813,0.95C35.365,98.374,42.606,100,50.141,100c12.475,0,24.401-4.53,33.582-12.754
		c9.171-8.218,14.949-19.535,16.269-31.868c0.046-0.433-0.094-0.864-0.387-1.188C99.313,53.866,98.897,53.682,98.462,53.682
		L98.462,53.682z M98.462,53.682"/>
</g>
</svg>
