<?xml version="1.0" encoding="utf-8"?>
<!-- Generator: Adobe Illustrator 15.1.0, SVG Export Plug-In . SVG Version: 6.00 Build 0)  -->
<!DOCTYPE svg PUBLIC "-//W3C//DTD SVG 1.1//EN" "http://www.w3.org/Graphics/SVG/1.1/DTD/svg11.dtd">
<svg version="1.1" id="Calque_1" xmlns="http://www.w3.org/2000/svg" xmlns:xlink="http://www.w3.org/1999/xlink" x="0px" y="0px"
	 width="26px" height="26px" viewBox="0 0 26 26" enable-background="new 0 0 26 26" xml:space="preserve">
<path d="M21.417,4H4.581C4.261,4,4,4.278,4,4.619v2.76C4,7.72,4.261,8,4.581,8h16.836C21.74,8,22,7.72,22,7.379v-2.76
	C22,4.278,21.74,4,21.417,4L21.417,4z M21.417,4"/>
<path d="M21.417,11H4.581C4.261,11,4,11.278,4,11.619v2.76C4,14.72,4.261,15,4.581,15h16.836C21.74,15,22,14.72,22,14.379v-2.76
	C22,11.278,21.74,11,21.417,11L21.417,11z M21.417,11"/>
<path d="M21.417,18H4.581C4.261,18,4,18.278,4,18.619v2.76C4,21.72,4.261,22,4.581,22h16.836C21.74,22,22,21.72,22,21.379v-2.76
	C22,18.278,21.74,18,21.417,18L21.417,18z M21.417,18"/>
</svg>
