<?xml version="1.0" encoding="utf-8"?>
<!-- Generator: Adobe Illustrator 15.1.0, SVG Export Plug-In . SVG Version: 6.00 Build 0)  -->
<!DOCTYPE svg PUBLIC "-//W3C//DTD SVG 1.1//EN" "http://www.w3.org/Graphics/SVG/1.1/DTD/svg11.dtd">
<svg version="1.1" id="Calque_1" xmlns="http://www.w3.org/2000/svg" xmlns:xlink="http://www.w3.org/1999/xlink" x="0px" y="0px"
	 width="57.725px" height="66.395px" viewBox="0 0 57.725 66.395" enable-background="new 0 0 57.725 66.395" xml:space="preserve">
<g>
	<g>
		<path fill="#FFFFFF" d="M57.725,3.934V3.371C57.725,1.518,56.207,0,54.354,0H3.371C1.518,0,0,1.518,0,3.371v0.563
			c0,1.854,1.518,3.371,3.371,3.371h1.303c0.669,0,0.615,0.625,0.615,0.943c0,3.744,1.535,8.072,2.713,10.836
			c2.359,5.547,7.73,10.098,12.141,13.309c0.805,0.588,0.611,1.131,0.145,1.506c-4.277,3.426-9.9,7.805-12.285,13.41
			c-1.158,2.723-2.664,6.959-2.711,10.662c-0.004,0.379,0.148,1.121-0.76,1.121h-1.16C1.518,59.092,0,60.607,0,62.461v0.563
			c0,1.854,1.518,3.371,3.371,3.371h50.982c1.854,0,3.371-1.518,3.371-3.371v-0.563c0-1.854-1.518-3.369-3.371-3.369h-0.729
			c-1.337,0-1.209-1.004-1.196-1.521c0.094-3.459-0.922-7.393-2.411-10.35c-3.31-6.572-8.53-10.754-11.745-13.172
			c-0.698-0.525-0.769-1.174,0-1.703c3.314-2.279,8.436-6.6,11.745-13.172c1.585-3.148,2.636-7.404,2.38-11.016
			c-0.021-0.289-0.041-0.854,0.718-0.854h1.239C56.207,7.305,57.725,5.787,57.725,3.934L57.725,3.934z M47.328,17.82
			c-3.08,6.115-8.022,10.488-12.32,13.125c-0.26,0.158-0.752,0.551-0.752,1.645v1.307c0,1.16,0.525,1.414,0.802,1.584
			c4.298,2.639,9.202,7.002,12.271,13.096c1.416,2.814,2.152,6.219,2.08,8.926c-0.016,0.564,0.201,1.59-1.264,1.59H9.549
			c-1.291,0-1.238-0.645-1.234-0.998c0.021-2.465,0.871-5.879,2.457-9.605c2.754-6.471,8.531-10.512,12.377-12.918
			c0.172-0.107,0.502-0.299,0.502-1.322v-1.957c0-1.059-0.507-1.469-0.775-1.639c-3.841-2.424-9.414-6.426-12.104-12.744
			c-1.604-3.768-2.453-7.215-2.459-9.686c0-0.322,0.041-0.918,0.758-0.918h39.488c0.797,0,0.789,0.602,0.814,0.922
			C49.6,11.027,48.863,14.768,47.328,17.82L47.328,17.82z M47.328,17.82"/>
		<path fill="#FFFFFF" d="M28.074,37.504L14.932,53.949c-0.434,0.543-0.22,0.988,0.476,0.988h26.91c0.694,0,0.909-0.445,0.474-0.988
			L29.65,37.504C29.217,36.961,28.507,36.961,28.074,37.504L28.074,37.504z M28.074,37.504"/>
		<path fill="#FFFFFF" d="M27.967,29.863c0.492,0.49,1.298,0.49,1.789,0l6.61-6.594c0.492-0.49,0.325-0.893-0.37-0.893h-14.27
			c-0.695,0-0.861,0.402-0.369,0.893L27.967,29.863z M27.967,29.863"/>
	</g>
</g>
</svg>
