<?xml version="1.0" encoding="utf-8"?>
<!-- Generator: Adobe Illustrator 15.1.0, SVG Export Plug-In . SVG Version: 6.00 Build 0)  -->
<!DOCTYPE svg PUBLIC "-//W3C//DTD SVG 1.1//EN" "http://www.w3.org/Graphics/SVG/1.1/DTD/svg11.dtd">
<svg version="1.1" id="Calque_1" xmlns="http://www.w3.org/2000/svg" xmlns:xlink="http://www.w3.org/1999/xlink" x="0px" y="0px"
	 width="66.824px" height="66.602px" viewBox="0 0 66.824 66.602" enable-background="new 0 0 66.824 66.602" xml:space="preserve">
<g>
	<g>
		<path fill-rule="evenodd" clip-rule="evenodd" fill="#FFFFFF" d="M19.656,13.703c-3.17-1.332-6.102-3.1-8.732-5.236
			C4.48,14.355,0.331,22.729,0,32.098h15.514C15.671,25.557,17.145,19.342,19.656,13.703L19.656,13.703z M48.923,34.502H34.605
			V50.15c3.594,0.078,7.053,0.709,10.305,1.807C47.34,46.611,48.76,40.713,48.923,34.502L48.923,34.502z M15.514,34.502H0
			c0.336,9.539,4.638,18.031,11.277,23.936c2.557-2.152,5.404-3.941,8.482-5.311C17.183,47.428,15.676,41.131,15.514,34.502
			L15.514,34.502z M28.819,0.037c-5.997,0.828-11.489,3.252-16.03,6.836c2.393,1.898,5.045,3.469,7.9,4.654
			C22.838,7.297,25.578,3.426,28.819,0.037L28.819,0.037z M44.877,14.563c-3.24,1.104-6.688,1.752-10.271,1.869v15.666h14.312
			C48.754,25.855,47.324,19.93,44.877,14.563L44.877,14.563z M34.605,0.283v13.746c3.208-0.115,6.291-0.68,9.205-1.643
			C41.436,7.848,38.313,3.762,34.605,0.283L34.605,0.283z M51.31,32.098h15.515c-0.332-9.369-4.476-17.754-10.92-23.637
			c-2.648,2.154-5.601,3.932-8.793,5.264C49.656,19.354,51.146,25.563,51.31,32.098L51.31,32.098z M54.029,6.873
			C49.418,3.24,43.844,0.793,37.737,0c3.327,3.398,6.134,7.291,8.331,11.561C48.944,10.369,51.614,8.781,54.029,6.873L54.029,6.873z
			 M22.94,12.365c2.937,0.979,6.042,1.549,9.272,1.664V0.055C28.471,3.584,25.328,7.742,22.94,12.365L22.94,12.365z M34.605,52.566
			v13.746c3.73-3.49,6.861-7.602,9.244-12.17C40.924,53.191,37.824,52.643,34.605,52.566L34.605,52.566z M37.732,66.602
			c6.139-0.795,11.739-3.268,16.361-6.934c-2.42-1.926-5.101-3.523-7.988-4.709C43.904,59.254,41.082,63.182,37.732,66.602
			L37.732,66.602z M47.155,52.779c3.197,1.332,6.155,3.131,8.81,5.305c6.41-5.881,10.527-14.238,10.854-23.582H51.31
			C51.146,41.006,49.673,47.178,47.155,52.779L47.155,52.779z M21.968,52.223c3.226-1.174,6.666-1.869,10.245-2.033V34.502H17.9
			C18.064,40.814,19.504,46.803,21.968,52.223L21.968,52.223z M32.213,66.547V52.605c-3.197,0.162-6.275,0.775-9.174,1.805
			C25.41,58.961,28.521,63.063,32.213,66.547L32.213,66.547z M13.164,60.004c4.47,3.426,9.815,5.754,15.65,6.559
			c-3.182-3.326-5.883-7.123-8.011-11.262C18.042,56.52,15.48,58.107,13.164,60.004L13.164,60.004z M17.9,32.098h14.313V16.432
			c-3.6-0.117-7.064-0.771-10.316-1.887C19.478,19.924,18.064,25.852,17.9,32.098L17.9,32.098z M17.9,32.098"/>
	</g>
</g>
</svg>
