<?xml version="1.0" encoding="utf-8"?>
<!-- Generator: Adobe Illustrator 15.1.0, SVG Export Plug-In . SVG Version: 6.00 Build 0)  -->
<!DOCTYPE svg PUBLIC "-//W3C//DTD SVG 1.1//EN" "http://www.w3.org/Graphics/SVG/1.1/DTD/svg11.dtd">
<svg version="1.1" id="Calque_1" xmlns="http://www.w3.org/2000/svg" xmlns:xlink="http://www.w3.org/1999/xlink" x="0px" y="0px"
	 width="91.568px" height="62.998px" viewBox="0 0 91.568 62.998" enable-background="new 0 0 91.568 62.998" xml:space="preserve">
<g>
	<path fill="#FFFFFF" d="M71.58,40.484c1.346,0.674,2.019,1.818,2.019,3.434v15.344c0,1.012-0.304,1.885-0.908,2.625
		c-0.606,0.742-1.38,1.111-2.323,1.111h-49.57c-0.875,0-1.615-0.369-2.221-1.111c-0.605-0.74-0.908-1.613-0.908-2.625V43.918
		c0-1.615,0.673-2.76,2.02-3.434l13.932-6.461l5.451-2.525c-2.558-1.547-4.51-3.768-5.855-6.662
		c-1.279-2.559-1.918-5.283-1.918-8.178c0-0.875,0.067-1.717,0.201-2.525c0.135-0.807,0.304-1.58,0.506-2.32
		c0.942-3.434,2.643-6.26,5.099-8.48C39.559,1.109,42.402,0,45.634,0c3.298,0,6.192,1.145,8.683,3.432
		c2.489,2.289,4.172,5.184,5.048,8.684c0.335,1.682,0.505,3.197,0.505,4.543c0,2.691-0.539,5.283-1.615,7.773
		c-1.346,3.029-3.299,5.316-5.855,6.865l5.754,2.727L71.58,40.484z M17.668,36.244c-1.48,0.674-2.643,1.699-3.483,3.08
		c-0.842,1.379-1.263,2.91-1.263,4.594v13.021H2.523c-0.74,0-1.346-0.285-1.817-0.857C0.234,55.512,0,54.787,0,53.912V41.594
		c0-1.48,0.537-2.422,1.615-2.826l15.648-7.27c-1.885-1.143-3.398-2.775-4.543-4.896c-1.145-2.119-1.717-4.492-1.717-7.117
		c0-1.816,0.304-3.551,0.91-5.199c0.605-1.648,1.429-3.08,2.473-4.291c1.043-1.211,2.254-2.17,3.635-2.877
		c1.379-0.707,2.877-1.061,4.492-1.061c1.077,0,2.087,0.17,3.028,0.506c0.942,0.336,1.851,0.773,2.728,1.311
		c-1.146,2.828-1.717,5.756-1.717,8.785c0,2.355,0.336,4.627,1.01,6.814c0.672,2.188,1.615,4.156,2.826,5.906
		c-0.74,0.807-1.515,1.447-2.322,1.918L17.668,36.244z M89.955,38.768c1.076,0.539,1.613,1.48,1.613,2.826V53.91
		c0,0.877-0.234,1.6-0.705,2.172c-0.472,0.572-1.077,0.857-1.818,0.857H78.344V43.918c0-1.684-0.421-3.215-1.262-4.594
		c-0.841-1.381-1.969-2.408-3.383-3.08l-9.994-4.746c-0.942-0.537-1.852-1.313-2.727-2.32c1.146-1.752,2.037-3.686,2.676-5.807
		c0.639-2.119,0.959-4.357,0.959-6.713c0-1.549-0.135-3.029-0.403-4.441c-0.271-1.414-0.674-2.795-1.212-4.141
		c0.875-0.605,1.817-1.094,2.827-1.463c1.009-0.371,2.053-0.557,3.13-0.557c1.615,0,3.129,0.354,4.543,1.061
		s2.643,1.666,3.686,2.877s1.867,2.643,2.473,4.291c0.606,1.648,0.909,3.383,0.909,5.199c0,2.559-0.573,4.896-1.716,7.018
		c-1.145,2.119-2.592,3.752-4.342,4.896L89.955,38.768z M89.955,38.768"/>
</g>
</svg>
