<?xml version="1.0" encoding="utf-8"?>
<!-- Generator: Adobe Illustrator 15.1.0, SVG Export Plug-In . SVG Version: 6.00 Build 0)  -->
<!DOCTYPE svg PUBLIC "-//W3C//DTD SVG 1.1//EN" "http://www.w3.org/Graphics/SVG/1.1/DTD/svg11.dtd">
<svg version="1.1" id="Calque_1" xmlns="http://www.w3.org/2000/svg" xmlns:xlink="http://www.w3.org/1999/xlink" x="0px" y="0px"
	 width="127.395px" height="87.865px" viewBox="0 0 127.395 87.865" enable-background="new 0 0 127.395 87.865"
	 xml:space="preserve">
<path fill="#010101" d="M106.412,41.906c-1.811,0-3.594,0.174-5.287,0.492c1.189-8.031-0.068-16.084-3.861-23.287
	C90.962,7.145,78.638,0,64.295,0C47.979,0,38.189,7.791,32.85,14.328c-3.529,4.318-5.602,8.652-6.692,11.42
	c-5.636,0.779-11.017,2.947-15.239,6.221C5.938,35.832,0,43.199,0,56.365c0,22.947,18.873,31.5,30.77,31.5h75.643
	c7.088,0,20.982-6.982,20.982-23.119C127.395,47.988,114.847,41.906,106.412,41.906z M106.412,79.064H30.77
	c-6.11,0-21.969-4.078-21.969-22.699c0-21.52,19.721-22.141,21.969-22.141c7.555,0,19.775,7.117,23.85,9.861
	c0.001,0,0.002,0.002,0.002,0.002l4.923-7.295c-1.487-1.004-13.195-8.736-23.83-10.838C39.08,19.426,47.189,8.801,64.295,8.801
	c11.181,0,20.359,5.252,25.182,14.412c3.869,7.348,4.27,15.928,1.361,24.182l-0.614,1.623l0,0c-1.023,2.512-2.354,4.984-3.993,7.371
	l7.256,4.98c1.943-2.832,3.535-5.768,4.78-8.76c1.433-0.828,4.384-1.902,8.146-1.902c0.498,0,12.182,0.16,12.182,14.039
	C118.594,76.395,108.01,79.064,106.412,79.064z"/>
</svg>
