<?xml version="1.0" encoding="utf-8"?>
<!-- Generator: Adobe Illustrator 15.1.0, SVG Export Plug-In . SVG Version: 6.00 Build 0)  -->
<!DOCTYPE svg PUBLIC "-//W3C//DTD SVG 1.1//EN" "http://www.w3.org/Graphics/SVG/1.1/DTD/svg11.dtd">
<svg version="1.1" id="Calque_1" xmlns="http://www.w3.org/2000/svg" xmlns:xlink="http://www.w3.org/1999/xlink" x="0px" y="0px"
	 width="34.266px" height="40.424px" viewBox="0 0 34.266 40.424" enable-background="new 0 0 34.266 40.424" xml:space="preserve">
<g>
	<path d="M26.081,9.09h5.972c1.22,0,2.213-0.992,2.213-2.213V2.213C34.266,0.994,33.272,0,32.053,0H2.213C0.993,0,0,0.994,0,2.213
		v4.664C0,8.098,0.993,9.09,2.213,9.09h12.726v1.104H2.213C0.993,10.193,0,11.186,0,12.406v4.664c0,1.221,0.993,2.213,2.213,2.213
		h12.726v1.102H2.213C0.993,20.385,0,21.379,0,22.6v4.662c0,1.221,0.993,2.213,2.213,2.213h12.726v2.365
		c-0.92,0.381-1.685,1.059-2.176,1.912H1.024c-0.555,0-1.006,0.451-1.006,1.006v2.414c0,0.557,0.451,1.006,1.006,1.006h11.738
		c0.77,1.342,2.215,2.246,3.869,2.246c1.653,0,3.1-0.904,3.869-2.246H33.26c0.556,0,1.006-0.449,1.006-1.006v-2.414
		c0-0.555-0.45-1.006-1.006-1.006H20.501c-0.467-0.813-1.183-1.465-2.042-1.852v-2.426h13.594c1.22,0,2.213-0.992,2.213-2.213V22.6
		c0-1.223-0.993-2.215-2.213-2.215H18.459v-1.102h13.594c1.22,0,2.213-0.992,2.213-2.213v-4.664c0-1.221-0.993-2.213-2.213-2.213
		H18.459V9.09H26.081z M32.253,2.213v4.664c0,0.111-0.09,0.201-0.2,0.201h-4.966V2.012h4.966
		C32.163,2.012,32.253,2.102,32.253,2.213L32.253,2.213z M32.253,22.6v4.662c0,0.111-0.09,0.201-0.2,0.201h-4.966v-5.066h4.966
		C32.163,22.396,32.253,22.488,32.253,22.6L32.253,22.6z M32.253,12.406v4.664c0,0.111-0.09,0.201-0.2,0.201h-4.966v-5.066h4.966
		C32.163,12.205,32.253,12.295,32.253,12.406L32.253,12.406z M32.253,12.406"/>
</g>
</svg>
