<?xml version="1.0" standalone="no"?>
<!DOCTYPE svg PUBLIC "-//W3C//DTD SVG 20010904//EN"
 "http://www.w3.org/TR/2001/REC-SVG-20010904/DTD/svg10.dtd">
<svg version="1.0" xmlns="http://www.w3.org/2000/svg"
 width="57.583px" height="50.023px" viewBox="0 0 350.000000 145.000000"
 preserveAspectRatio="xMidYMid meet">
<metadata>
Created by potrace 1.15, written by Peter Selinger 2001-2017
</metadata>
<g transform="translate(0.000000,145.000000) scale(0.100000,-0.100000)"
 stroke="none">
<path d="M935 1401 c-66 -20 -127 -39 -136 -43 -16 -6 -74 -146 -65 -156 14
-14 37 13 52 62 16 50 22 57 53 66 69 19 141 33 146 28 3 -2 -9 -43 -26 -89
l-31 -85 -161 -13 c-89 -6 -202 -20 -252 -29 l-90 -17 165 -1 c144 -1 283 -14
297 -28 3 -2 2 -13 -1 -23 -5 -16 -21 -18 -183 -19 -115 0 -217 -6 -288 -17
-176 -27 -177 -32 -8 -33 96 0 203 -7 273 -17 166 -25 162 -24 154 -50 -3 -12
-7 -23 -8 -24 -1 -2 -54 5 -117 13 -130 18 -316 13 -489 -12 -174 -25 -175
-31 -5 -30 124 0 206 -6 365 -28 113 -16 207 -31 209 -32 4 -3 -54 -168 -68
-191 -6 -11 -21 0 -64 49 -60 66 -64 76 -46 110 9 16 8 23 -2 29 -10 6 -19 -2
-31 -29 -10 -20 -18 -43 -18 -50 0 -8 39 -65 88 -127 l87 -113 22 57 c12 31
39 103 61 161 l39 105 99 6 c95 6 251 31 295 47 11 5 -23 6 -75 4 -105 -5
-255 5 -275 17 -8 5 -11 17 -7 28 6 19 18 21 194 26 135 4 208 11 262 24 l75
19 -160 6 c-135 5 -308 28 -323 42 -2 3 -1 14 3 26 6 18 12 21 38 16 18 -4
109 -9 202 -12 172 -6 306 6 413 38 40 12 29 13 -125 13 -130 0 -196 6 -290
23 -66 12 -137 22 -157 22 -20 0 -36 4 -36 10 0 5 20 63 45 130 25 67 45 123
45 125 0 9 -26 3 -145 -34z"/>
<path d="M981 290 c-55 -149 -101 -275 -101 -281 0 -6 21 -9 52 -7 l52 3 32
85 c17 47 38 102 47 123 l16 37 94 0 94 0 11 39 c7 21 12 41 12 45 0 3 -40 6
-90 6 -49 0 -90 1 -90 3 0 1 10 30 23 62 l23 60 111 3 c111 3 111 3 121 30 6
15 13 35 17 45 7 16 -5 17 -158 17 l-165 0 -101 -270z"/>
<path d="M2291 322 c-46 -125 -93 -248 -103 -274 l-18 -48 54 0 54 0 57 163
c32 89 63 173 69 187 10 24 10 24 13 -10 2 -19 10 -104 19 -188 l17 -153 46 3
46 3 82 220 c46 121 92 244 102 273 l20 52 -48 0 -48 0 -64 -170 c-41 -108
-66 -163 -70 -152 -3 9 -14 86 -24 170 l-18 152 -51 0 -51 0 -84 -228z"/>
<path d="M1333 218 l-79 -213 50 -3 c32 -2 52 1 57 10 5 7 32 76 60 153 29 77
62 168 75 203 l24 62 -54 0 -53 0 -80 -212z"/>
<path d="M1646 422 c-6 -10 -156 -411 -156 -417 0 -3 54 -5 119 -5 117 0 119
0 125 24 3 13 9 31 12 40 5 14 -3 16 -55 16 -44 0 -61 4 -61 13 0 7 27 85 60
173 33 87 60 160 60 162 0 6 -99 1 -104 -6z"/>
<path d="M1939 403 c-36 -93 -149 -397 -149 -399 0 -2 65 -4 143 -4 l144 0 15
39 c9 22 13 42 10 45 -3 3 -43 6 -89 6 -92 0 -93 2 -65 60 17 35 17 35 94 38
75 3 76 3 87 34 6 17 11 35 11 39 0 5 -33 9 -74 11 l-74 3 15 38 15 37 83 0
83 0 11 31 c6 18 11 36 11 40 0 5 -59 9 -130 9 l-130 0 -11 -27z"/>
<path d="M2756 224 c-42 -113 -76 -210 -76 -215 0 -5 61 -9 140 -9 l140 0 15
36 c8 20 15 40 15 45 0 5 -40 9 -90 9 l-90 0 18 48 18 47 77 3 77 3 15 36 c8
19 15 37 15 39 0 2 -34 4 -75 4 -41 0 -75 2 -75 5 0 3 7 21 14 40 l15 35 81 0
81 0 15 35 c7 19 14 37 14 40 0 3 -60 5 -134 5 l-133 0 -77 -206z"/>
<path d="M3162 397 c-17 -47 -17 -47 28 -47 22 0 40 -3 40 -7 0 -5 -27 -79
-60 -167 -33 -87 -60 -163 -60 -168 0 -5 23 -8 51 -6 l51 3 63 170 62 170 60
3 c57 3 60 4 76 38 10 19 17 37 17 39 0 3 -71 5 -158 5 l-158 0 -12 -33z"/>
</g>
</svg>
