<?xml version="1.0" encoding="utf-8"?>
<!-- Generator: Adobe Illustrator 15.1.0, SVG Export Plug-In . SVG Version: 6.00 Build 0)  -->
<!DOCTYPE svg PUBLIC "-//W3C//DTD SVG 1.1//EN" "http://www.w3.org/Graphics/SVG/1.1/DTD/svg11.dtd">
<svg version="1.1" id="Capa_1" xmlns="http://www.w3.org/2000/svg" xmlns:xlink="http://www.w3.org/1999/xlink" x="0px" y="0px"
	 width="50px" height="50px" viewBox="0 0 50 50" enable-background="new 0 0 50 50" xml:space="preserve">
<g id="XMLID_476_">
	<path id="XMLID_503_" d="M49.506,19.455c0.658-0.658,0.658-1.726,0-2.384l-2.53-2.53c-0.572-0.572-1.47-0.657-2.14-0.202
		l-5.319,3.615l3.594-5.355c0.449-0.669,0.362-1.562-0.208-2.131l-5.488-5.488c-0.507-0.507-1.278-0.638-1.923-0.327l-0.949,0.457
		l0.455-1.008c0.288-0.639,0.151-1.389-0.345-1.885L32.93,0.494c-0.658-0.658-1.726-0.658-2.384,0L17.165,13.875l18.961,18.96
		L49.506,19.455z"/>
	<path id="XMLID_1199_" d="M14.673,16.366L10.8,20.239c-0.316,0.316-0.494,0.745-0.494,1.192c0,0.447,0.178,0.876,0.494,1.192
		l3.674,3.674c0.708,0.708,1.051,1.685,0.942,2.68c-0.109,0.995-0.657,1.875-1.502,2.414C3.117,38.274,2.111,39.28,1.78,39.611
		c-2.374,2.374-2.374,6.235,0,8.609c2.375,2.376,6.238,2.371,8.609,0c0.331-0.331,1.337-1.337,8.219-12.134
		c0.538-0.843,1.417-1.39,2.412-1.499c0.999-0.109,1.975,0.233,2.682,0.939l3.674,3.674c0.658,0.658,1.726,0.658,2.384,0
		l3.874-3.874L14.673,16.366z M7.873,45.497c-0.93,0.931-2.439,0.931-3.37,0s-0.931-2.439,0-3.37c0.931-0.931,2.439-0.931,3.37,0
		C8.803,43.058,8.803,44.566,7.873,45.497z"/>
</g>
</svg>
