<?xml version="1.0" encoding="utf-8"?>
<!-- Generator: Adobe Illustrator 15.1.0, SVG Export Plug-In . SVG Version: 6.00 Build 0)  -->
<!DOCTYPE svg PUBLIC "-//W3C//DTD SVG 1.1//EN" "http://www.w3.org/Graphics/SVG/1.1/DTD/svg11.dtd">
<svg version="1.1" id="Calque_1" xmlns="http://www.w3.org/2000/svg" xmlns:xlink="http://www.w3.org/1999/xlink" x="0px" y="0px"
	 width="133.181px" height="84.255px" viewBox="0 0 133.181 84.255" enable-background="new 0 0 133.181 84.255"
	 xml:space="preserve">
<g>
	<path fill="#010101" d="M3.141,20.853c1.438-0.191,3.164,0,4.794,0c0,0-0.671,18.986-0.767,32.316
		C7.071,66.5,18.387,63.91,20.593,63.621c2.206-0.287,9.781,0.863,8.247-10.355c-1.535-11.221-1.727-38.166-1.438-43.152
		s-1.726-6.809-4.699-6.809c-2.973,0-13.712,4.795-17.792,6.617c-4.08,1.82-3.017,7-3.017,8.342
		C1.894,19.607,1.701,21.044,3.141,20.853z"/>
	<path fill="#010101" d="M36.703,28.621c0,0,3.068,3.164,6.425,0s10.933-7.096,11.508-2.59c0.575,4.508-9.494,11.795-13.042,14.576
		c-3.549,2.781-10.164,5.754-9.302,15.727c0.288,5.658,0.958,7.586,11.891,7.678c10.933,0.09,25.221-1.156,26.18-1.252
		c0.958-0.096,6.712,0.479,6.425-5.754c-0.287-6.234,1.15-11.221-4.699-11.125c-5.85,0.098-9.59,0.768-11.123-1.82
		c-1.535-2.59-2.686-3.443,1.533-7.045c4.221-3.6,13.139-9.449,13.139-16.162S70.746,1.865,55.02,1.865
		c-10.837-0.096-21.193,8.152-21.193,8.152c-3.644,3.068-5.945,6.52-2.493,11.41C34.785,26.32,36.703,28.621,36.703,28.621z"/>
	<path fill="#010101" d="M71.992,33.978c0,1.438,1.035,2.602,2.313,2.602s2.313-1.164,2.313-2.602c0-1.436-1.035-2.602-2.313-2.602
		S71.992,32.542,71.992,33.978z M73.91,33.298c0,0.471-0.329,0.852-0.735,0.852c-0.405,0-0.735-0.381-0.735-0.852
		s0.33-0.854,0.735-0.854C73.581,32.445,73.91,32.828,73.91,33.298z"/>
	<path fill="#010101" d="M101.688,42.812c-0.959,0-4.667-0.512-8.822-2.877s-9.078,3.58-9.846,8.248
		c-0.767,4.666-2.365,16.43,17.837,16.43s29.407-12.787,29.407-23.271s-6.009-14.768-16.43-18.348
		c-10.42-3.58-4.283-5.242,1.15-9.588c5.435-4.348,5.946-5.18,4.731-9.08c-1.214-3.898-0.511-4.986-8.822-3.963
		S82.381,2.666,79.632,3.431c-2.825,0.789-4.858,3.133-4.347,6.586c0.511,3.451,1.918,12.529,4.347,12.529
		c2.43,0,10.356-8.949,15.663-8.949c2.276,0,2.813,1.406,2.813,1.98c0,0.576,0.512,3.326-8.119,8.504
		c-4.219,2.684-2.174,4.283-1.854,4.922c0.319,0.639,1.662,3.014,2.109,3.938c0.447,0.922,2.877,0.73,5.689,0.666
		s10.996-0.703,10.996,4.283S102.646,42.812,101.688,42.812z"/>
	<path fill="#010101" d="M8.459,71.363c1.244,0,2.217,0.271,2.895,0.564l0.725-2.713c-0.611-0.34-1.968-0.68-3.755-0.68
		C3.709,68.535,0,71.408,0,76.611c0,4.342,2.714,7.645,7.984,7.645c1.832,0,3.279-0.361,3.891-0.656l-0.498-2.713
		c-0.701,0.293-1.832,0.496-2.896,0.496c-3.054,0-4.862-1.922-4.862-4.975C3.619,73.013,5.744,71.363,8.459,71.363z"/>
	<path fill="#010101" d="M18.909,72.675c-3.574,0-5.927,2.283-5.927,5.881c0,3.572,2.488,5.699,5.723,5.699
		c2.963,0,5.836-1.855,5.836-5.902C24.541,75.003,22.279,72.675,18.909,72.675z M18.796,81.791c-1.47,0-2.263-1.426-2.263-3.326
		c0-1.627,0.634-3.324,2.263-3.324c1.561,0,2.194,1.674,2.194,3.303C20.99,80.455,20.152,81.791,18.796,81.791z"/>
	<path fill="#010101" d="M33.204,72.697c-1.854,0-2.963,1.064-3.415,1.787h-0.068l-0.158-1.537h-2.985
		c0.045,0.994,0.09,2.148,0.09,3.527v7.533h3.438v-6.379c0-0.316,0.022-0.633,0.113-0.859c0.248-0.633,0.814-1.289,1.764-1.289
		c1.244,0,1.742,0.973,1.742,2.396v6.131h3.438V77.47C37.162,74.212,35.467,72.697,33.204,72.697z"/>
	<path fill="#010101" d="M43.632,69.96l-3.37,0.928v2.059h-1.471v2.533h1.471v4.523c0,1.561,0.316,2.623,0.949,3.279
		c0.566,0.566,1.494,0.951,2.602,0.951c0.95,0,1.787-0.137,2.217-0.295l-0.022-2.602c-0.317,0.068-0.543,0.09-1.019,0.09
		c-1.018,0-1.356-0.609-1.356-1.943V75.48h2.466v-2.533h-2.466V69.96z"/>
	<path fill="#010101" d="M57.294,77.47c0-2.623-1.153-4.795-4.841-4.795c-2.014,0-3.528,0.564-4.297,0.994l0.633,2.217
		c0.724-0.451,1.923-0.836,3.053-0.836c1.697,0,2.014,0.836,2.014,1.447v0.135c-3.912,0-6.491,1.357-6.491,4.23
		c0,1.764,1.335,3.393,3.573,3.393c1.313,0,2.443-0.475,3.167-1.357h0.067l0.203,1.109h3.1c-0.136-0.611-0.181-1.629-0.181-2.67
		V77.47z M53.969,79.98c0,0.205-0.022,0.408-0.068,0.588c-0.227,0.701-0.949,1.268-1.786,1.268c-0.77,0-1.357-0.43-1.357-1.313
		c0-1.313,1.402-1.74,3.212-1.74V79.98z"/>
	<path fill="#010101" d="M65.889,75.343c0.905,0,1.516,0.158,1.923,0.34l0.543-2.557c-0.724-0.271-1.72-0.43-2.624-0.43
		c-4.116,0-6.333,2.646-6.333,5.881c0,3.461,2.284,5.656,5.858,5.656c1.312,0,2.465-0.227,3.076-0.521l-0.407-2.533
		c-0.521,0.227-1.153,0.361-1.968,0.361c-1.674,0-3.031-1.086-3.031-3.098C62.904,76.632,64.08,75.343,65.889,75.343z"/>
	<path fill="#010101" d="M74.439,69.96l-3.371,0.928v2.059h-1.47v2.533h1.47v4.523c0,1.561,0.316,2.623,0.951,3.279
		c0.564,0.566,1.492,0.951,2.6,0.951c0.951,0,1.787-0.137,2.217-0.295l-0.021-2.602c-0.317,0.068-0.543,0.09-1.019,0.09
		c-1.018,0-1.356-0.609-1.356-1.943V75.48h2.465v-2.533h-2.465V69.96z"/>
	<polygon fill="#010101" points="83.6,84.007 87.037,84.007 87.037,77.876 92.512,77.876 92.512,75.072 87.037,75.072 
		87.037,71.589 92.896,71.589 92.896,68.761 83.6,68.761 	"/>
	<path fill="#010101" d="M100.089,72.675c-3.573,0-5.927,2.283-5.927,5.881c0,3.572,2.489,5.699,5.724,5.699
		c2.963,0,5.835-1.855,5.835-5.902C105.721,75.003,103.459,72.675,100.089,72.675z M99.976,81.791c-1.47,0-2.261-1.426-2.261-3.326
		c0-1.627,0.633-3.324,2.261-3.324c1.562,0,2.194,1.674,2.194,3.303C102.17,80.455,101.333,81.791,99.976,81.791z"/>
	<path fill="#010101" d="M110.924,74.982h-0.091l-0.136-2.035h-2.939c0.067,0.949,0.09,2.012,0.09,3.641v7.42h3.438v-5.609
		c0-0.271,0.023-0.543,0.068-0.77c0.227-1.064,1.086-1.742,2.352-1.742c0.385,0,0.656,0.045,0.928,0.09v-3.234
		c-0.248-0.045-0.406-0.066-0.723-0.066C112.824,72.675,111.489,73.353,110.924,74.982z"/>
	<path fill="#010101" d="M129.448,72.675c-0.813,0-1.492,0.203-2.103,0.543c-0.543,0.316-1.019,0.768-1.448,1.355h-0.046
		c-0.475-1.152-1.583-1.898-3.03-1.898c-1.878,0-2.872,1.039-3.348,1.764h-0.067l-0.137-1.492h-2.918
		c0.046,0.994,0.092,2.148,0.092,3.527v7.533h3.348V77.56c0-0.293,0.021-0.611,0.135-0.883c0.204-0.541,0.725-1.221,1.605-1.221
		c1.109,0,1.607,0.951,1.607,2.33v6.221h3.347v-6.469c0-0.295,0.046-0.635,0.113-0.883c0.249-0.656,0.792-1.199,1.606-1.199
		c1.107,0,1.628,0.928,1.628,2.533v6.018h3.348v-6.516C133.181,74.167,131.574,72.675,129.448,72.675z"/>
</g>
</svg>
