<?xml version="1.0" encoding="utf-8"?>
<!-- Generator: Adobe Illustrator 15.1.0, SVG Export Plug-In . SVG Version: 6.00 Build 0)  -->
<!DOCTYPE svg PUBLIC "-//W3C//DTD SVG 1.1//EN" "http://www.w3.org/Graphics/SVG/1.1/DTD/svg11.dtd">
<svg version="1.1" id="Calque_1" xmlns="http://www.w3.org/2000/svg" xmlns:xlink="http://www.w3.org/1999/xlink" x="0px" y="0px"
	 width="142.681px" height="97.438px" viewBox="0 0 142.681 97.438" enable-background="new 0 0 142.681 97.438"
	 xml:space="preserve">
<g>
	<path fill="#010101" d="M68.111,49.875c5.782-1.475,11.698-2.662,17.573-3.52c2.523-0.375,5.129-0.697,7.753-0.955
		c1.62-6.279,3.627-12.566,5.97-18.727l-0.792,0.139c-7.989,1.496-16.046,3.6-23.927,6.248
		C72.202,38.57,69.987,44.219,68.111,49.875"/>
	<path fill="#010101" d="M47.243,41.461c2.546-5.182,5.377-10.305,8.43-15.244c-4.648,2.654-9.274,5.523-13.759,8.539
		c-3.446,4.975-6.646,10.131-9.544,15.367C37.206,46.992,42.2,44.088,47.243,41.461"/>
	<path fill="#010101" d="M64.642,50.803c1.752-5.496,3.82-11.002,6.144-16.385c-7.276,2.633-14.432,5.746-21.288,9.271
		c-2.336,4.818-4.451,9.764-6.314,14.711C50.045,55.408,57.26,52.855,64.642,50.803"/>
	<path fill="#010101" d="M98.149,23.828c0.859-0.154,1.707-0.309,2.549-0.451c2.549-6.316,5.503-12.611,8.798-18.701
		c-7.799,1.857-15.7,4.293-23.496,7.23c-3.509,5.631-6.722,11.479-9.574,17.398C83.595,27.027,90.895,25.184,98.149,23.828"/>
	<path fill="#010101" d="M19.137,71.529c1.524-4.027,3.233-8.092,5.105-12.096c-3.202,2.371-6.331,4.848-9.323,7.375
		c-2.714,4.385-5.236,8.893-7.514,13.414C11.16,77.15,15.097,74.227,19.137,71.529"/>
	<path fill="#010101" d="M39.345,60.135c1.682-4.717,3.598-9.447,5.713-14.086c-5.309,2.926-10.584,6.186-15.67,9.705
		c-2.172,4.264-4.156,8.633-5.928,12.992C28.569,65.576,33.904,62.678,39.345,60.135"/>
	<path fill="#010101" d="M96.638,45.098c9.56-0.805,19.173-0.865,28.086-0.156c2.122-7.455,4.369-14.506,6.856-21.127
		c-0.407-0.006-0.825-0.006-1.245-0.006c-8.956,0-18.193,0.764-27.459,2.266C100.415,32.328,98.326,38.717,96.638,45.098"/>
	<path fill="#010101" d="M130.325,20.787c0.834,0,1.629,0.008,2.408,0.02c2.951-7.479,6.295-14.469,9.947-20.807
		c-6.688,0.256-16.949,1.133-29.242,3.785c-3.445,6.156-6.557,12.555-9.244,19.027C113.005,21.467,121.797,20.787,130.325,20.787"/>
	<path fill="#010101" d="M62.769,70.334c3.486-0.596,6.998-1.084,10.458-1.455c5.249-0.563,10.657-0.885,16.091-0.982
		c0.654-6.256,1.787-12.771,3.355-19.387c-2.205,0.24-4.432,0.527-6.621,0.846c-6.393,0.939-12.799,2.266-19.031,3.928
		C65.263,59.012,63.824,64.734,62.769,70.334"/>
	<path fill="#010101" d="M13.995,87.771c0.943-3.719,2.084-7.529,3.387-11.367c-4.56,3.246-8.988,6.795-13.177,10.563
		C2.632,90.498,1.216,94.02,0,97.438C4.362,93.941,9.064,90.689,13.995,87.771"/>
	<path fill="#010101" d="M59.599,70.898c0.986-5.447,2.322-11.045,3.988-16.656c-7.514,2.188-14.85,4.914-21.83,8.115
		c-1.689,4.861-3.125,9.73-4.275,14.488C44.532,74.355,51.97,72.357,59.599,70.898"/>
</g>
</svg>
