<?xml version="1.0" encoding="utf-8"?>
<!-- Generator: Adobe Illustrator 15.1.0, SVG Export Plug-In . SVG Version: 6.00 Build 0)  -->
<!DOCTYPE svg PUBLIC "-//W3C//DTD SVG 1.1//EN" "http://www.w3.org/Graphics/SVG/1.1/DTD/svg11.dtd">
<svg version="1.1" id="Calque_1" xmlns="http://www.w3.org/2000/svg" xmlns:xlink="http://www.w3.org/1999/xlink" x="0px" y="0px"
	 width="32.603px" height="39.422px" viewBox="0 0 32.603 39.422" enable-background="new 0 0 32.603 39.422" xml:space="preserve">
<g>
	<path d="M16.302,0c8.684,0,16.027,3.586,16.277,7.879c-0.25,4.289-7.594,7.879-16.277,7.879c-8.688,0-16.028-3.586-16.278-7.879
		C0.273,3.586,7.613,0,16.302,0L16.302,0z M16.302,0"/>
	<path d="M32.603,31.32c0,4.391-7.465,8.102-16.301,8.102S0,35.711,0,31.32v-3.871c2.789,3.352,8.962,5.629,16.302,5.629
		c7.336,0,13.508-2.281,16.301-5.629V31.32z M32.603,31.32"/>
	<path d="M32.603,23.379c0,4.391-7.465,8.098-16.301,8.098S0,27.77,0,23.379v-4.035c2.789,3.352,8.962,5.629,16.302,5.629
		c7.336,0,13.508-2.281,16.301-5.629V23.379z M32.603,23.379"/>
	<path d="M32.603,15.273c0,4.391-7.465,8.098-16.301,8.098S0,19.664,0,15.273v-3.547c2.789,3.352,8.962,5.629,16.302,5.629
		c7.336,0,13.508-2.277,16.301-5.629V15.273z M32.603,15.273"/>
</g>
</svg>
