<?xml version="1.0" encoding="utf-8"?>
<!-- Generator: Adobe Illustrator 15.1.0, SVG Export Plug-In . SVG Version: 6.00 Build 0)  -->
<!DOCTYPE svg PUBLIC "-//W3C//DTD SVG 1.1//EN" "http://www.w3.org/Graphics/SVG/1.1/DTD/svg11.dtd">
<svg version="1.1" id="Calque_1" xmlns="http://www.w3.org/2000/svg" xmlns:xlink="http://www.w3.org/1999/xlink" x="0px" y="0px"
	 width="47.5px" height="49.066px" viewBox="0 0 47.5 49.066" enable-background="new 0 0 47.5 49.066" xml:space="preserve">
<path d="M37,19.252c-1.175,0-2.324,0.193-3.413,0.568l-3.724-3.724c0.029-0.38,0.043-0.762,0.043-1.143
	c0-0.215-0.004-0.43-0.014-0.645h3.455c1.445,1.948,3.745,3.147,6.293,3.147c4.326,0,7.845-3.519,7.845-7.845
	c0-4.326-3.52-7.845-7.845-7.845c-2.509,0-4.791,1.175-6.243,3.085h-7.424C23.158,1.786,19.158,0,14.953,0C6.708,0,0,6.708,0,14.953
	c0,5.871,3.392,11.014,8.411,13.452c-2.946,2.066-4.818,5.481-4.818,9.3c0,6.264,5.096,11.36,11.36,11.36
	c6.265,0,11.361-5.096,11.361-11.36c0-3.819-1.872-7.233-4.817-9.3c1.578-0.766,3.009-1.805,4.228-3.074l1.26,1.259
	c-0.321,1.016-0.486,2.08-0.486,3.162c0,5.791,4.71,10.501,10.501,10.501c5.79,0,10.501-4.711,10.501-10.501S42.79,19.252,37,19.252
	z M37,36.846c-3.917,0-7.093-3.175-7.093-7.093c0-1.438,0.429-2.776,1.165-3.894l-5.776-5.776c-1.703,3.427-5.057,5.886-9.022,6.338
	v3.443c3.764,0.629,6.632,3.899,6.632,7.841c0,4.392-3.561,7.952-7.953,7.952c-4.392,0-7.952-3.561-7.952-7.952
	c0-3.942,2.869-7.212,6.632-7.841v-3.443C7.879,25.765,3.408,20.882,3.408,14.953c0-6.376,5.169-11.545,11.545-11.545
	c3.88,0,7.311,1.916,9.404,4.851h11.057c0.571-1.789,2.247-3.085,4.227-3.085c2.451,0,4.437,1.987,4.437,4.437
	s-1.986,4.437-4.437,4.437c-2.002,0-3.693-1.326-4.246-3.147h-9.63c0.473,1.261,0.733,2.626,0.733,4.053
	c0,0.808-0.083,1.596-0.241,2.357l6.651,6.651c1.156-0.818,2.567-1.301,4.092-1.301c3.917,0,7.093,3.176,7.093,7.093
	C44.092,33.67,40.917,36.846,37,36.846z"/>
</svg>
