<?xml version="1.0" encoding="utf-8"?>
<!-- Generator: Adobe Illustrator 15.1.0, SVG Export Plug-In . SVG Version: 6.00 Build 0)  -->
<!DOCTYPE svg PUBLIC "-//W3C//DTD SVG 1.1//EN" "http://www.w3.org/Graphics/SVG/1.1/DTD/svg11.dtd">
<svg version="1.1" id="Calque_1" xmlns="http://www.w3.org/2000/svg" xmlns:xlink="http://www.w3.org/1999/xlink" x="0px" y="0px"
	 width="80px" height="80px" viewBox="0 0 80 80" enable-background="new 0 0 80 80" xml:space="preserve">
<g>
	<path d="M40,0C17.944,0,0,17.944,0,40s17.944,40,40,40c22.056,0,40-17.944,40-40S62.056,0,40,0z M40,78
		C19.047,78,2,60.953,2,40S19.047,2,40,2s38,17.047,38,38S60.953,78,40,78z"/>
	<path d="M40,7.577c-17.869,0-32.408,14.531-32.422,32.396c0,0.009-0.001,0.018-0.001,0.026s0.001,0.018,0.001,0.026
		c0.015,17.856,14.539,32.382,32.396,32.396c0.009,0,0.017,0.002,0.026,0.002s0.017-0.002,0.026-0.002
		C57.892,72.408,72.423,57.869,72.423,40C72.423,22.122,57.878,7.577,40,7.577z M40.015,68.423c-0.005,0-0.01,0-0.015,0
		s-0.01,0-0.015,0c-2.711-0.021-6.201-5.877-7.86-15.965c2.598,0.247,5.25,0.376,7.875,0.376s5.277-0.128,7.875-0.376
		C46.216,62.546,42.727,68.401,40.015,68.423z M40,48.834c-3.011,0-5.818-0.153-8.412-0.421c-0.268-2.595-0.421-5.401-0.421-8.413
		s0.153-5.818,0.421-8.413c2.594-0.268,5.401-0.421,8.412-0.421s5.818,0.153,8.412,0.421c0.268,2.595,0.421,5.401,0.421,8.413
		s-0.153,5.818-0.421,8.413C45.818,48.681,43.011,48.834,40,48.834z M11.577,40c0-0.005,0-0.01,0-0.015
		c0.021-2.712,5.876-6.202,15.965-7.86c-0.248,2.598-0.376,5.249-0.376,7.875s0.128,5.277,0.376,7.875
		c-10.089-1.658-15.944-5.148-15.965-7.86C11.578,40.01,11.577,40.005,11.577,40z M40,11.578c2.714,0,6.213,5.859,7.875,15.964
		c-2.598-0.248-5.25-0.376-7.875-0.376s-5.277,0.128-7.875,0.376C33.787,17.437,37.286,11.578,40,11.578z M52.458,32.125
		C62.563,33.786,68.422,37.286,68.422,40s-5.858,6.214-15.964,7.875c0.248-2.598,0.376-5.25,0.376-7.875
		S52.705,34.723,52.458,32.125z M67.549,33c-3.769-2.359-9.374-4.028-15.589-4.96c-0.932-6.215-2.601-11.82-4.96-15.588
		C57.059,15.009,64.991,22.941,67.549,33z M33,12.452c-2.358,3.768-4.028,9.374-4.959,15.588c-6.214,0.932-11.82,2.601-15.589,4.959
		C15.009,22.941,22.942,15.009,33,12.452z M12.452,47.001c3.769,2.358,9.375,4.027,15.589,4.959
		c0.932,6.214,2.601,11.82,4.958,15.588C22.942,64.991,15.009,57.059,12.452,47.001z M47.001,67.548
		c2.358-3.768,4.027-9.374,4.959-15.588c6.215-0.932,11.82-2.601,15.589-4.96C64.992,57.058,57.059,64.991,47.001,67.548z"/>
</g>
</svg>
