<svg xmlns="http://www.w3.org/2000/svg" version="1" viewBox="0 0 26 26" enable-background="new 0 0 26 26" width="40" height="40">
    <path d="M 15 0 L 0 3 L 0 23 L 15 26 L 15 0 z M 16 6 L 16 7.8125 L 16.40625 7.8125 C 16.50625 7.8125 16.59375 7.80625 16.59375 7.90625 L 17.90625 9.1875 C 18.00625 9.2875 18.00625 9.4 17.90625 9.5 L 17.40625 10 C 17.30625 10.1 17.19375 10.1 17.09375 10 L 16.5 9.40625 L 16 9.40625 L 16 12.90625 C 16.9 13.70625 17.70625 14.29375 17.40625 14.59375 C 17.30625 14.79375 16.7 14.49375 16 14.09375 L 16 17.6875 L 16.1875 17.6875 C 17.7875 16.4875 19.1 14.2875 19.5 14.6875 C 20 15.0875 16.80625 19.3125 16.40625 19.3125 L 16 19.3125 L 16 21 L 24.6875 21 C 25.3875 21 26 20.3875 26 19.6875 L 26 7.3125 C 26 6.6125 25.3875 6 24.6875 6 L 16 6 z M 9.90625 6.40625 L 9.90625 8.59375 L 6.5 8.8125 L 6.5 11.3125 L 9.59375 11.1875 L 9.59375 13.40625 L 6.5 13.40625 L 6.5 16 L 10.09375 16.1875 L 10.09375 18.40625 L 4.40625 17.90625 L 4.40625 7 L 9.90625 6.40625 z M 20.5 7.8125 L 22.59375 7.8125 L 23.90625 7.8125 C 24.10625 7.8125 24.1875 7.89375 24.1875 8.09375 L 24.1875 9.40625 L 24.1875 9.90625 L 24.1875 11.3125 C 24.1875 11.4125 24.19375 11.5 24.09375 11.5 L 22.8125 12.8125 C 22.7125 12.9125 22.6 12.9125 22.5 12.8125 L 22 12.40625 C 21.9 12.30625 21.9 12.19375 22 12.09375 L 22.59375 11.5 L 22.59375 9.40625 L 20.8125 9.40625 C 19.2125 10.60625 17.9 12.80625 17.5 12.40625 C 17 12.00625 20.1 7.9125 20.5 7.8125 z M 19.8125 12.4375 C 20.603516 12.378174 24.3125 15.21875 24.3125 15.5 L 24.3125 17.59375 L 24.1875 17.59375 L 24.1875 18.90625 C 24.1875 19.10625 24.10625 19.1875 23.90625 19.1875 L 22.59375 19.1875 L 22.09375 19.1875 L 20.6875 19.1875 C 20.5875 19.1875 20.5 19.19375 20.5 19.09375 L 19.1875 17.8125 C 19.0875 17.7125 19.0875 17.6 19.1875 17.5 L 19.6875 17 C 19.7875 16.9 19.9 16.9 20 17 L 20.59375 17.59375 L 22.6875 17.59375 L 22.6875 15.8125 C 21.4875 14.2125 19.2875 12.9 19.6875 12.5 C 19.7125 12.46875 19.759766 12.441455 19.8125 12.4375 z"/>
</svg>