<?xml version="1.0" encoding="utf-8"?>
<!-- Generator: Adobe Illustrator 15.1.0, SVG Export Plug-In . SVG Version: 6.00 Build 0)  -->
<!DOCTYPE svg PUBLIC "-//W3C//DTD SVG 1.1//EN" "http://www.w3.org/Graphics/SVG/1.1/DTD/svg11.dtd">
<svg version="1.1" id="Calque_1" xmlns="http://www.w3.org/2000/svg" xmlns:xlink="http://www.w3.org/1999/xlink" x="0px" y="0px"
	 width="41.057px" height="39.014px" viewBox="0 0 41.057 39.014" enable-background="new 0 0 41.057 39.014" xml:space="preserve">
<path d="M36.275,11.053c0.225-0.641,0.35-1.332,0.35-2.049c0-3.42-2.782-6.201-6.201-6.201c-1.377,0-2.65,0.451-3.681,1.213
	C25.653,1.648,23.259,0,20.486,0c-2.757,0-5.141,1.629-6.239,3.975c-1.021-0.736-2.272-1.172-3.625-1.172
	c-3.419,0-6.201,2.781-6.201,6.201c0,0.717,0.122,1.408,0.349,2.049H0v5.324c0,2.34,0.922,3.717,1.693,4.459
	c0.666,0.637,1.826,1.389,3.676,1.51c0.012,0.141,0.02,0.318,0.02,0.543c0,0.836,0.01,1.801,0.021,2.824
	c0.011,1.031,0.021,2.098,0.021,3.023c0,3.357,2.367,5.988,5.389,5.988h2.564c0.49,2.443,2.654,4.289,5.24,4.289h3.721
	c2.588,0,4.75-1.846,5.242-4.289h2.648c3.022,0,5.389-2.631,5.389-5.988c0-0.926,0.012-1.992,0.022-3.023
	c0.011-1.023,0.021-1.988,0.021-2.824c0-0.225,0.008-0.402,0.021-0.543c1.85-0.121,3.011-0.873,3.675-1.51
	c0.772-0.742,1.693-2.119,1.693-4.459v-5.324H36.275z M14.086,31.943c0,0-1.769,0-3.223,0c-1.453,0-2.609-1.367-2.609-3.207
	s-0.043-4.168-0.043-5.848s-0.342-3.305-2.266-3.305c-1.925,0-3.123-0.941-3.123-3.207c0-2.268,0-2.543,0-2.543s1.626,0,5.346,0
	c3.723,0,5.918,3.084,5.918,6.727S14.086,31.943,14.086,31.943z M10.665,12.424c-1.89,0-3.422-1.531-3.422-3.42
	c0-1.891,1.532-3.422,3.422-3.422s3.421,1.531,3.421,3.422C14.086,10.893,12.555,12.424,10.665,12.424z M20.529,2.781
	c2.268,0,4.105,1.838,4.105,4.105s-1.838,4.105-4.105,4.105s-4.105-1.838-4.105-4.105S18.262,2.781,20.529,2.781z M24.955,19.598
	v11.148v2.922c0,1.418-1.148,2.566-2.566,2.566h-3.721c-1.416,0-2.566-1.148-2.566-2.566v-2.922V19.598v-5.658
	c0-0.662,0.537-1.197,1.198-1.197h6.458c0.662,0,1.197,0.535,1.197,1.197V19.598z M30.466,5.582c1.89,0,3.421,1.531,3.421,3.422
	c0,1.889-1.531,3.42-3.421,3.42s-3.421-1.531-3.421-3.42C27.045,7.113,28.576,5.582,30.466,5.582z M38.32,16.377
	c0,2.266-1.198,3.207-3.122,3.207c-1.925,0-2.267,1.625-2.267,3.305s-0.043,4.008-0.043,5.848s-1.154,3.207-2.609,3.207
	c-1.453,0-3.222,0-3.222,0s0-7.74,0-11.383s2.196-6.727,5.917-6.727s5.346,0,5.346,0S38.32,14.109,38.32,16.377z"/>
</svg>
