<?xml version="1.0" encoding="utf-8"?>
<!-- Generator: Adobe Illustrator 15.1.0, SVG Export Plug-In . SVG Version: 6.00 Build 0)  -->
<!DOCTYPE svg PUBLIC "-//W3C//DTD SVG 1.1//EN" "http://www.w3.org/Graphics/SVG/1.1/DTD/svg11.dtd">
<svg version="1.1" id="Calque_1" xmlns="http://www.w3.org/2000/svg" xmlns:xlink="http://www.w3.org/1999/xlink" x="0px" y="0px"
	 width="31.637px" height="40.949px" viewBox="0 0 31.637 40.949" enable-background="new 0 0 31.637 40.949" xml:space="preserve">
<g>
	<path d="M29.08,0H2.559C1.148,0,0,1.146,0,2.557v35.836c0,1.41,1.148,2.557,2.559,2.557H29.08
		c1.41,0,2.557-1.146,2.557-2.557V2.557C31.637,1.146,30.49,0,29.08,0z M28.417,34.697h-6.409v-2.146h0.221
		c0.837,0,1.516-0.678,1.516-1.516v-2.463v-4.104v-2.146c0-2.303-1.865-4.17-4.168-4.17h-7.514c-2.303,0-4.168,1.867-4.168,4.17
		v2.146v4.104v2.463c0,0.838,0.678,1.516,1.516,1.516h0.221v2.146h-6.41V3.221h25.196V34.697z"/>
	<circle cx="15.819" cy="12.597" r="4.356"/>
</g>
</svg>
