<?xml version="1.0" encoding="utf-8"?>
<!-- Generator: Adobe Illustrator 15.1.0, SVG Export Plug-In . SVG Version: 6.00 Build 0)  -->
<!DOCTYPE svg PUBLIC "-//W3C//DTD SVG 1.1//EN" "http://www.w3.org/Graphics/SVG/1.1/DTD/svg11.dtd">
<svg version="1.1" id="Calque_1" xmlns="http://www.w3.org/2000/svg" xmlns:xlink="http://www.w3.org/1999/xlink" x="0px" y="0px"
	 width="66.229px" height="76.492px" viewBox="0 0 66.229 76.492" enable-background="new 0 0 66.229 76.492" xml:space="preserve">
<g>
	<path fill="#FFFFFF" d="M17.845,11.041c-1.298-1.123-2.984-1.797-4.833-1.797c-4.093,0-7.408,3.314-7.408,7.408
		c0,1.109,0.253,2.152,0.688,3.1C9.496,16.121,13.42,13.137,17.845,11.041L17.845,11.041z M17.845,11.041"/>
	<path fill="#FFFFFF" d="M33.113,76.492c18.287,0,33.116-14.822,33.116-33.113c0-16.373-11.891-29.971-27.511-32.631V4.541h2.867
		c0.953,0,1.726-1.018,1.726-2.271c0-1.252-0.772-2.27-1.726-2.27H24.637c-0.947,0-1.719,1.018-1.719,2.27
		c0,1.254,0.771,2.271,1.719,2.271h2.873v6.207c-2.789,0.475-5.455,1.299-7.96,2.428c-4.526,2.037-8.516,5.053-11.689,8.795
		C2.964,27.744,0,35.211,0,43.379C0,61.67,14.829,76.492,33.113,76.492L33.113,76.492z M13.607,24.029
		c1.861-1.883,3.991-3.492,6.332-4.775c3.911-2.146,8.406-3.375,13.174-3.375c15.167,0,27.498,12.338,27.498,27.5
		c0,15.164-12.331,27.496-27.498,27.496c-15.159,0-27.496-12.332-27.496-27.496C5.617,35.84,8.674,29.004,13.607,24.029
		L13.607,24.029z M13.607,24.029"/>
	<path fill="#FFFFFF" d="M16.49,60.004c1.062,1.063,2.229,2.029,3.475,2.873c0.629,0.422,1.279,0.816,1.939,1.174
		c3.336,1.811,7.149,2.842,11.209,2.842c0.507,0,1.014-0.02,1.513-0.045c2.497-0.162,4.884-0.707,7.109-1.59
		c0.889-0.35,1.751-0.752,2.588-1.207c0.669-0.357,1.311-0.752,1.939-1.174c1.245-0.844,2.413-1.811,3.478-2.873
		c4.255-4.256,6.889-10.133,6.889-16.625c0-6.494-2.634-12.371-6.889-16.627c-1.064-1.063-2.232-2.023-3.478-2.873
		c-0.629-0.422-1.278-0.813-1.939-1.174c-0.837-0.455-1.699-0.857-2.588-1.207c-2.226-0.875-4.612-1.428-7.109-1.584
		c-0.499-0.031-1.006-0.051-1.513-0.051c-4.06,0-7.873,1.031-11.209,2.842c-0.668,0.361-1.311,0.752-1.939,1.174
		c-1.25,0.85-2.413,1.811-3.475,2.873C12.234,31.008,9.6,36.885,9.6,43.379C9.6,49.871,12.234,55.748,16.49,60.004L16.49,60.004z
		 M33.113,24.67v17.617l-17.709,6.807C12.273,36.879,20.842,24.67,33.113,24.67L33.113,24.67z M33.113,24.67"/>
</g>
</svg>
