<?xml version="1.0" encoding="utf-8"?>
<!-- Generator: Adobe Illustrator 15.1.0, SVG Export Plug-In . SVG Version: 6.00 Build 0)  -->
<!DOCTYPE svg PUBLIC "-//W3C//DTD SVG 1.1//EN" "http://www.w3.org/Graphics/SVG/1.1/DTD/svg11.dtd">
<svg version="1.1" id="Calque_1" xmlns="http://www.w3.org/2000/svg" xmlns:xlink="http://www.w3.org/1999/xlink" x="0px" y="0px"
	 width="61.744px" height="41.291px" viewBox="0 0 61.744 41.291" enable-background="new 0 0 61.744 41.291" xml:space="preserve">
<path fill="#010101" d="M30.953,24.764h0.01c0.467,0,0.928-0.135,1.299-0.381l0.102-0.064c0.021-0.016,0.043-0.027,0.069-0.045
	l1.175-0.975L61.68,0.133C61.626,0.053,61.523,0,61.417,0H0.328C0.254,0,0.183,0.025,0.124,0.074l29.374,24.207
	C29.869,24.586,30.396,24.764,30.953,24.764L30.953,24.764z M0,3.281v34.342l21.043-17L0,3.281z M40.729,20.742l21.016,16.891V3.393
	L40.729,20.742z M34.047,26.254c-0.842,0.686-1.936,1.066-3.089,1.066s-2.247-0.375-3.083-1.061l-4.821-3.975L0,40.904v0.059
	c0,0.178,0.15,0.328,0.333,0.328h61.089c0.172,0,0.322-0.15,0.322-0.328V40.91L38.713,22.404L34.047,26.254z M34.047,26.254"/>
</svg>
